<?xml version="1.0" encoding="UTF-8"?>
<svg width="17px" height="13px" viewBox="0 0 17 13" version="1.1" xmlns="http://www.w3.org/2000/svg" xmlns:xlink="http://www.w3.org/1999/xlink">
    <title>001-email copy</title>
    <g id="Page-1" stroke="none" stroke-width="1" fill="none" fill-rule="evenodd">
        <g id="Unicus-homev2" transform="translate(-572.000000, -3468.000000)" fill="#FFFFFF" fill-rule="nonzero">
            <g id="Group-5" transform="translate(0.000000, 3290.000000)">
                <g id="001-email-copy" transform="translate(572.000000, 178.000000)">
                    <path d="M16.15,0.0241852792 L0.85,0.0241852792 C0.380574219,0.0241852792 0,0.402340102 0,0.86885533 L0,12.1311117 C0,12.5975939 0.380541016,12.9757817 0.85,12.9757817 L16.15,12.9757817 C16.6194258,12.9757817 17,12.5976269 17,12.1311117 L17,0.86885533 C17,0.402373096 16.619459,0.0241852792 16.15,0.0241852792 Z M16.4333223,12.1311447 C16.4333223,12.2866497 16.3064863,12.4126904 16.15,12.4126904 L0.85,12.4126904 C0.693513672,12.4126904 0.566677734,12.2866497 0.566677734,12.1311447 L0.566677734,0.86885533 C0.566677734,0.713350254 0.693513672,0.587309645 0.85,0.587309645 L16.15,0.587309645 C16.3064863,0.587309645 16.4333223,0.713350254 16.4333223,0.86885533 L16.4333223,12.1311447 Z" id="Shape"></path>
                    <path d="M15.6079922,1.15145685 C15.5331191,1.14495685 15.4587109,1.16828426 15.4011699,1.21632487 L8.86463672,6.67286041 C8.65383008,6.84895431 8.34613672,6.84895431 8.13533008,6.67286041 L1.59886328,1.21629188 C1.52133398,1.15162183 1.41495117,1.1329467 1.31982422,1.16732741 C1.22469727,1.20170812 1.15523633,1.28393147 1.13763867,1.38301523 C1.12004102,1.48209898 1.15696289,1.58296447 1.23449219,1.64763452 L7.77099219,7.10390609 C8.19227344,7.45639086 8.80772656,7.45639086 9.22904102,7.10390609 L15.7655078,1.64766751 C15.823082,1.5996599 15.8590742,1.53089848 15.8656152,1.45649492 C15.8721563,1.38209137 15.8486816,1.30814975 15.8003379,1.25096954 C15.7520605,1.19372335 15.6828652,1.15795685 15.6079922,1.15145685 Z" id="Path"></path>
                    <path d="M5.44942969,7.06520305 C5.34912305,7.04296447 5.24459961,7.07642132 5.17620117,7.15263959 L1.20952344,11.3759898 C1.13773828,11.4490406 1.111375,11.5550203 1.14066016,11.6528832 C1.16994531,11.7507792 1.25026367,11.8252157 1.35053711,11.8474543 C1.45084375,11.8696929 1.55536719,11.836236 1.62376563,11.7600178 L5.59044336,7.53666751 C5.66222852,7.46361675 5.6885918,7.35763706 5.65930664,7.25977411 C5.63002148,7.16191117 5.54973633,7.08744162 5.44942969,7.06520305 Z" id="Path"></path>
                    <path d="M11.8237988,7.15263959 C11.7554336,7.07642132 11.650877,7.04296447 11.5505703,7.06520305 C11.4502637,7.08744162 11.3699785,7.16191117 11.3406934,7.25977411 C11.3114082,7.35767005 11.3377715,7.46361675 11.4095566,7.53666751 L15.3762344,11.7600178 C15.4838125,11.8694949 15.6596562,11.8735863 15.772248,11.7691904 C15.8848398,11.6647944 15.8929414,11.4901853 15.7904766,11.3759569 L11.8237988,7.15263959 Z" id="Path"></path>
                </g>
            </g>
        </g>
    </g>
</svg>