<?xml version="1.0" encoding="UTF-8"?>
<svg width="20px" height="20px" viewBox="0 0 20 20" version="1.1" xmlns="http://www.w3.org/2000/svg" xmlns:xlink="http://www.w3.org/1999/xlink">
    <title>001-facebook</title>
    <g id="Page-1" stroke="none" stroke-width="1" fill="none" fill-rule="evenodd">
        <g id="Unicus-homev2" transform="translate(-1173.000000, -362.000000)" fill="#FFFFFF" fill-rule="nonzero">
            <g id="001-facebook" transform="translate(1173.000000, 362.000000)">
                <path d="M18.3333203,0 L1.66667969,0 C0.733320312,0 0,0.733320312 0,1.66667969 L0,18.3333594 C0,19.2666797 0.733320312,20 1.66667969,20 L9.33335938,20 L13.3333594,20 L18.3333594,20 C19.2666797,20 20,19.2666797 20,18.3333203 L20,1.66667969 C20,0.733320312 19.2666797,0 18.3333203,0 Z M10,19.3333594 L10,12.6666797 L7.33332031,12.6666797 L7.33332031,10 L10,10 L10,7.66667969 C10,5.76667969 11.4666797,4.16667969 13.3333203,4 L16.3333203,4 L16.3333203,6.66667969 L13.6666406,6.66667969 C13.0999609,6.66667969 12.6666406,7.1 12.6666406,7.66667969 L12.6666406,10 L16,10 L16,12.6666797 L12.6666797,12.6666797 L12.6666797,19.3333594 L10,19.3333594 L10,19.3333594 Z M19.3333594,18.3333203 C19.3333594,18.9 18.9,19.3333203 18.3333203,19.3333203 L13.3333203,19.3333203 L13.3333203,13.3333203 L16.6666406,13.3333203 L16.6666406,9.33332031 L13.3333203,9.33332031 L13.3333203,7.66664063 C13.3333203,7.46664063 13.4666406,7.33332031 13.6666406,7.33332031 L17,7.33332031 L17,3.33332031 L13.3,3.33332031 C11.0666797,3.53332031 9.33332031,5.43332031 9.33332031,7.66664063 L9.33332031,9.33332031 L6.66664063,9.33332031 L6.66664063,13.3333203 L9.33332031,13.3333203 L9.33332031,19.3333203 L1.66667969,19.3333203 C1.1,19.3333203 0.666679688,18.9 0.666679688,18.3333203 L0.666679688,1.66667969 C0.666679688,1.1 1.1,0.666679688 1.66667969,0.666679688 L18.3333594,0.666679688 C18.9000391,0.666679688 19.3333594,1.1 19.3333594,1.66667969 L19.3333594,18.3333203 L19.3333594,18.3333203 Z" id="Shape"></path>
            </g>
        </g>
    </g>
</svg>