<?xml version="1.0" encoding="UTF-8"?>
<svg width="20px" height="20px" viewBox="0 0 20 20" version="1.1" xmlns="http://www.w3.org/2000/svg" xmlns:xlink="http://www.w3.org/1999/xlink">
    <title>002-instagram</title>
    <g id="Page-1" stroke="none" stroke-width="1" fill="none" fill-rule="evenodd">
        <g id="Unicus-homev2" transform="translate(-1173.000000, -424.000000)" fill="#FFFFFF" fill-rule="nonzero">
            <g id="002-instagram" transform="translate(1173.000000, 424.000000)">
                <path d="M17.826087,0 L2.17391304,0 C0.975288696,0 0,0.975288696 0,2.17391304 L0,17.826087 C0,19.0247113 0.975288696,20 2.17391304,20 L17.826087,20 C19.0247113,20 20,19.0247113 20,17.826087 L20,2.17391304 C20,0.975288696 19.0247113,0 17.826087,0 Z M19.1304348,17.826087 C19.1304348,18.5451342 18.5451342,19.1304348 17.826087,19.1304348 L2.17391304,19.1304348 C1.45486582,19.1304348 0.869565217,18.5451342 0.869565217,17.826087 L0.869565217,2.17391304 C0.869565217,1.45486582 1.45486582,0.869565217 2.17391304,0.869565217 L17.826087,0.869565217 C18.5451342,0.869565217 19.1304348,1.45486582 19.1304348,2.17391304 L19.1304348,17.826087 Z" id="Shape"></path>
                <path d="M10,3.47826087 C6.40391473,3.47826087 3.47826087,6.40391473 3.47826087,10 C3.47826087,13.5960853 6.40391473,16.5217391 10,16.5217391 C13.5960853,16.5217391 16.5217391,13.5960853 16.5217391,10 C16.5217391,6.40391473 13.5960853,3.47826087 10,3.47826087 Z M10,15.6521739 C6.88349185,15.6521739 4.34782609,13.1165082 4.34782609,10 C4.34782609,6.88349185 6.88349185,4.34782609 10,4.34782609 C13.1165082,4.34782609 15.6521739,6.88349185 15.6521739,10 C15.6521739,13.1165082 13.1165082,15.6521739 10,15.6521739 Z" id="Shape"></path>
                <path d="M10,6.95652174 C8.32179859,6.95652174 6.95652174,8.32179859 6.95652174,10 C6.95652174,11.6782014 8.32179859,13.0434783 10,13.0434783 C11.6782014,13.0434783 13.0434783,11.6782014 13.0434783,10 C13.0434783,8.32179859 11.6782014,6.95652174 10,6.95652174 Z M10,12.173913 C8.80137565,12.173913 7.82608696,11.1986243 7.82608696,10 C7.82608696,8.80137565 8.80137565,7.82608696 10,7.82608696 C11.1986243,7.82608696 12.173913,8.80137565 12.173913,10 C12.173913,11.1986243 11.1986243,12.173913 10,12.173913 Z" id="Shape"></path>
                <path d="M17.3913043,3.47826087 C17.3913043,3.95847489 17.0019532,4.34782609 16.5217391,4.34782609 C16.0415251,4.34782609 15.6521739,3.95847489 15.6521739,3.47826087 C15.6521739,2.99804685 16.0415251,2.60869565 16.5217391,2.60869565 C17.0019532,2.60869565 17.3913043,2.99804685 17.3913043,3.47826087 Z" id="Path"></path>
            </g>
        </g>
    </g>
</svg>