<?xml version="1.0" encoding="UTF-8"?>
<svg width="50px" height="71px" viewBox="0 0 50 71" version="1.1" xmlns="http://www.w3.org/2000/svg" xmlns:xlink="http://www.w3.org/1999/xlink">
    <title>Group 27</title>
    <defs>
        <polygon id="path-1" points="0.17012967 0.181375749 7.53113086 0.181375749 7.53113086 10.4318486 0.17012967 10.4318486"></polygon>
        <polygon id="path-3" points="0 70.2282609 49.1124977 70.2282609 49.1124977 0.05005 0 0.05005"></polygon>
    </defs>
    <g id="Page-1" stroke="none" stroke-width="1" fill="none" fill-rule="evenodd">
        <g id="Unicus-home" transform="translate(-105.000000, -20.000000)">
            <g id="Group-8" transform="translate(-1.000000, 0.000000)">
                <g id="Group-27" transform="translate(106.000000, 20.000000)">
                    <path d="M0,56 L49,56 L49,0 L0,0 L0,56 Z M0.195690027,55.7999214 L48.80431,55.7999214 L48.80431,0.199878524 L0.195690027,0.199878524 L0.195690027,55.7999214 Z" id="Fill-1" fill="#FFFFFF"></path>
                    <g id="Group-26">
                        <path d="M27.925183,44.162122 C27.925183,46.5704567 25.9894919,48.5226046 23.6018976,48.5226046 C21.2143034,48.5226046 19.2788085,46.5704567 19.2788085,44.162122 C19.2788085,41.753985 21.2143034,39.8018372 23.6018976,39.8018372 C25.9894919,39.8018372 27.925183,41.753985 27.925183,44.162122" id="Fill-2" fill="#FFFFFF"></path>
                        <path d="M17.6917928,28.4248985 C17.6917928,30.8330354 15.7562979,32.7851833 13.3685075,32.7851833 C10.9811094,32.7851833 9.04541833,30.8330354 9.04541833,28.4248985 C9.04541833,26.0165637 10.9811094,24.0644159 13.3685075,24.0644159 C15.7562979,24.0644159 17.6917928,26.0165637 17.6917928,28.4248985" id="Fill-4" fill="#FFFFFF"></path>
                        <path d="M26.1694097,24.0644159 C26.1694097,26.2114224 24.4439792,27.9515007 22.3154839,27.9515007 C20.1869887,27.9515007 18.4615581,26.2114224 18.4615581,24.0644159 C18.4615581,21.9176072 20.1869887,20.1773311 22.3154839,20.1773311 C24.4439792,20.1773311 26.1694097,21.9176072 26.1694097,24.0644159" id="Fill-6" fill="#FFFFFF"></path>
                        <path d="M34.7910708,38.4593498 C34.7910708,40.4263346 33.2099982,42.0210107 31.2597928,42.0210107 C29.3095875,42.0210107 27.7285149,40.4263346 27.7285149,38.4593498 C27.7285149,36.492365 29.3095875,34.8976889 31.2597928,34.8976889 C33.2099982,34.8976889 34.7910708,36.492365 34.7910708,38.4593498" id="Fill-8" fill="#FFFFFF"></path>
                        <path d="M34.4692859,29.1800798 C34.4692859,30.9678341 33.0323751,32.417108 31.2598713,32.417108 C29.4871713,32.417108 28.0502605,30.9678341 28.0502605,29.1800798 C28.0502605,27.3923254 29.4871713,25.9430515 31.2598713,25.9430515 C33.0323751,25.9430515 34.4692859,27.3923254 34.4692859,29.1800798" id="Fill-10" fill="#FFFFFF"></path>
                        <path d="M42.6383377,15.0847733 C42.6383377,19.8579211 38.8018682,23.7273993 34.0694379,23.7273993 C29.3372038,23.7273993 25.5007343,19.8579211 25.5007343,15.0847733 C25.5007343,10.3116254 29.3372038,6.44214717 34.0694379,6.44214717 C38.8018682,6.44214717 42.6383377,10.3116254 42.6383377,15.0847733" id="Fill-12" fill="#FFFFFF"></path>
                        <path d="M18.1690959,39.7525785 C18.1690959,42.4265937 16.01981,44.594372 13.3686056,44.594372 C10.7174012,44.594372 8.56811523,42.4265937 8.56811523,39.7525785 C8.56811523,37.0783654 10.7174012,34.9105872 13.3686056,34.9105872 C16.01981,34.9105872 18.1690959,37.0783654 18.1690959,39.7525785" id="Fill-14" fill="#FFFFFF"></path>
                        <g id="Group-18" transform="translate(41.581367, 59.743478)">
                            <mask id="mask-2" fill="white">
                                <use xlink:href="#path-1"></use>
                            </mask>
                            <g id="Clip-17"></g>
                            <path d="M7.46269813,7.33092043 C7.56841679,8.38711391 7.30323751,9.28880522 6.6326399,9.77070957 C5.95066626,10.2607248 4.70087159,10.4328335 3.25729206,10.4318486 C2.3124928,10.4312509 0.363268158,10.4296683 0.363268158,10.4296683 L0.363268158,9.02075087 L2.69515906,9.02075087 C4.15011462,9.02075087 5.3526399,9.08445087 5.76041189,8.14180957 C6.0353981,7.50619435 5.83337542,6.85198348 5.33577199,6.52042696 C4.95644009,6.26839652 4.31859761,6.18313348 3.7248863,6.02764217 C2.07496905,5.59321609 0.3975924,5.25315304 0.191843089,3.35145087 C-0.00586454183,1.53797913 1.1699859,0.183661739 2.76419982,0.18207913 C4.36763224,0.180496522 7.53115048,0.18207913 7.53115048,0.18207913 L6.87938216,1.59060087 L4.68439595,1.59060087 C3.9529954,1.59060087 3.1199951,1.52432913 2.54256329,1.72393565 C1.67406191,2.02285087 1.40339074,3.50140304 2.28424885,4.09092478 C2.71849954,4.38430087 3.41832179,4.4254487 3.99849954,4.58390739 C5.59369415,5.02426826 7.27420901,5.44662696 7.46269813,7.33092043" id="Fill-16" fill="#FFFFFF" mask="url(#mask-2)"></path>
                        </g>
                        <path d="M24.00508,62.461035 C24.00508,60.7955372 25.066974,59.8333111 26.5366399,59.8333111 C27.8931339,59.8333111 30.695365,59.8384546 30.695365,59.8384546 L30.6957573,61.3342176 C30.6957573,61.3342176 27.7142556,61.3288763 26.9281324,61.3288763 C25.8340717,61.3288763 25.53143,62.004848 25.5273111,63.2145546 L25.5433944,66.7390241 C25.5373141,68.1317198 26.1855519,68.7566524 26.9487269,68.7669393 C28.1414453,68.7827654 30.6912461,68.7641698 30.6957573,68.7641698 L30.6957573,70.2083002 C30.7122329,70.2083002 28.5972712,70.2532067 26.7365051,70.2083002 C25.2646816,70.1730872 24.0566644,69.1220372 24.0374428,67.6124263 C24.0168483,66.0041002 24.00508,63.8663915 24.00508,62.461035" id="Fill-19" fill="#FFFFFF"></path>
                        <mask id="mask-4" fill="white">
                            <use xlink:href="#path-3"></use>
                        </mask>
                        <g id="Clip-22"></g>
                        <polygon id="Fill-21" fill="#FFFFFF" mask="url(#mask-4)" points="20.1214588 70.1730674 21.6074042 70.1730674 21.6074042 59.8384348 20.1214588 59.8384348"></polygon>
                        <path d="M14.0082525,59.8626244 C15.3445443,59.8604528 16.4368397,60.653142 16.805384,61.5805507 C17.2229629,62.6280398 17.0115256,64.3038246 17.0115256,65.7711007 L17.0115256,70.1731267 L15.4337873,70.1731267 L15.4337873,64.1513007 C15.4337873,62.9038093 15.5191076,61.8369333 14.7390647,61.4673941 C14.0588563,61.1443441 13.1101342,61.3257507 12.621357,61.5455354 C11.8322918,61.9006333 11.2466221,62.5690876 11.2493681,63.5524811 C11.2550561,65.6150159 11.2493681,70.1731267 11.2493681,70.1731267 L9.70615017,70.1731267 L9.70615017,59.9170311 L10.5975998,59.9170311 C11.011452,59.9170311 10.9296623,60.7955767 11.2146515,60.8060615 C11.2146515,60.8060615 12.0380411,59.8626244 14.0082525,59.8626244" id="Fill-23" fill="#FFFFFF" mask="url(#mask-4)"></path>
                        <path d="M5.65991051,59.9171102 L7.30472816,59.9171102 L7.30472816,70.1732059 L6.37856206,70.1732059 C5.98098927,70.1749863 6.22694698,69.2922863 5.76170641,69.2924841 C4.93831689,70.3168276 2.15413055,70.4376993 1.13185657,69.7150407 C0.569527429,69.3178059 -5.88415568e-05,68.6018733 -5.88415568e-05,67.6374711 L0.000529574012,59.9171102 L1.57767944,59.9171102 L1.57767944,65.982458 C1.57767944,67.166645 1.48784799,68.3700211 2.26337971,68.6936646 C3.00674471,69.0044493 4.22221514,68.8380776 4.67961017,68.5654733 C5.1654453,68.2746689 5.61832914,67.8242189 5.65873368,67.1444885 L5.65991051,59.9171102 Z" id="Fill-24" fill="#FFFFFF" mask="url(#mask-4)"></path>
                        <path d="M38.0787055,59.9171102 L39.7235231,59.9171102 L39.7235231,70.1732059 L38.797357,70.1732059 C38.3995881,70.1749863 38.645742,69.2922863 38.1805014,69.2924841 C37.3571119,70.3168276 34.5729255,70.4376993 33.5504554,69.7150407 C32.9881263,69.3178059 32.4187361,68.6018733 32.4187361,67.6374711 L32.4193245,59.9171102 L33.9962783,59.9171102 L33.9962783,65.982458 C33.9962783,67.166645 33.906643,68.3700211 34.6821747,68.6936646 C35.4255397,69.0044493 36.6410101,68.8380776 37.098209,68.5654733 C37.5842403,68.2746689 38.0371241,67.8242189 38.0775287,67.1444885 L38.0787055,59.9171102 Z" id="Fill-25" fill="#FFFFFF" mask="url(#mask-4)"></path>
                    </g>
                </g>
            </g>
        </g>
    </g>
</svg>