<?xml version="1.0" encoding="UTF-8"?>
<svg width="25px" height="28px" viewBox="0 0 25 28" version="1.1" xmlns="http://www.w3.org/2000/svg" xmlns:xlink="http://www.w3.org/1999/xlink">
    <title>001-call copy</title>
    <g id="Page-1" stroke="none" stroke-width="1" fill="none" fill-rule="evenodd">
        <g id="Unicus-homev2" transform="translate(-568.000000, -3429.000000)" fill="#FFFFFF" fill-rule="nonzero">
            <g id="Group-5" transform="translate(0.000000, 3290.000000)">
                <g id="001-call-copy" transform="translate(580.428203, 152.526279) rotate(-330.000000) translate(-580.428203, -152.526279) translate(572.428203, 141.526279)">
                    <path d="M8.9659276,20.5354751 C9.98402715,21.1067873 10.8002262,21.3202262 11.3058824,21.3986878 C11.5037604,21.4303489 11.7037711,21.4468223 11.9041629,21.4479638 C12.2517647,21.4479638 12.5408597,21.390543 12.7343891,21.2788235 L14.9291855,20.0118552 C15.6343461,19.6035427 15.8759669,18.7015077 15.4693213,17.9953846 L14.0581448,15.551267 C13.8615296,15.2118287 13.5386801,14.9638971 13.16,14.8615385 C12.7818007,14.7533684 12.3759236,14.8028564 12.0347964,14.998733 L10.7877828,15.718371 C10.7852941,15.7197738 10.7828507,15.721267 10.780362,15.7228959 C10.7758371,15.7257014 10.2934842,16.0026697 9.50045249,15.80181 C8.63253394,15.5818552 7.27099548,14.7533032 5.71312217,12.0552036 C4.25266968,9.52579186 4.18488688,7.98321267 4.38520362,7.13461538 C4.59131222,6.26131222 5.10570136,5.94588235 5.1338914,5.92923077 L5.13533937,5.92837104 L6.38235294,5.2081448 C6.72239043,5.01084494 6.96822437,4.68445894 7.0639819,4.30316742 C7.16488765,3.92427435 7.11175873,3.52084596 6.9161991,3.18099548 L5.50506787,0.736425339 C5.09431396,0.0342272687 4.19527914,-0.20715035 3.4880543,0.194886878 L1.29321267,1.4618552 C0.996425339,1.63348416 0.695520362,2.05520362 0.467692308,2.61936652 C0.277647059,3.08995475 0.0463800905,3.89276018 0.0238461538,5.04470588 C-0.037918552,8.20447964 1.48321267,11.5248869 2.770181,13.7539367 C4.05760181,15.9837557 6.17751131,18.970362 8.9659276,20.5354751 Z M0.657239819,5.05733032 C0.694208145,3.16800905 1.32692308,2.1739819 1.60995475,2.01063348 L3.80479638,0.743665158 C3.93029855,0.67118619 4.07271972,0.633145815 4.21764706,0.633392462 C4.29384801,0.633392462 4.36970474,0.643616523 4.44325792,0.663529412 C4.65946459,0.719813695 4.84421719,0.860157896 4.95642534,1.05334842 L6.36755656,3.49751131 C6.47961423,3.69347541 6.50957825,3.92581858 6.45090498,4.1438009 C6.39734502,4.36069482 6.25838936,4.54673058 6.06561086,4.65963801 L4.81855204,5.37963801 C4.75552036,5.41606335 4.08723982,5.82330317 3.79941176,6.86832579 C3.41104072,8.27855204 3.87027149,10.1301357 5.16443439,12.3717195 C6.5038009,14.6917195 7.91040724,16.0523529 9.34488688,16.4158824 C10.3629864,16.6738009 11.0270136,16.3124434 11.1050679,16.2665611 L12.3514932,15.5471041 C12.5457309,15.4366842 12.7763685,15.409511 12.9909502,15.4717647 C13.2092711,15.5301531 13.3956532,15.6724893 13.509457,15.8677376 L14.9206335,18.3118552 C15.1468576,18.7156878 15.01015,19.2262341 14.6123982,19.4629864 L12.4178281,20.7299548 C12.1795928,20.8675566 10.9921267,20.9461086 9.2761991,19.9829412 C6.61312217,18.4881448 4.56674208,15.5983258 3.31900452,13.4370588 C2.07208145,11.2777828 0.598280543,8.07108597 0.657239819,5.05733032 Z" id="Shape"></path>
                </g>
            </g>
        </g>
    </g>
</svg>