<?xml version="1.0" encoding="UTF-8"?>
<svg width="22px" height="22px" viewBox="0 0 22 22" version="1.1" xmlns="http://www.w3.org/2000/svg" xmlns:xlink="http://www.w3.org/1999/xlink">
    <title>001-whatsapp</title>
    <g id="Page-1" stroke="none" stroke-width="1" fill="none" fill-rule="evenodd">
        <g id="Unicus-homev2" transform="translate(-1172.000000, -298.000000)" fill="#FFFFFF" fill-rule="nonzero">
            <g id="001-whatsapp" transform="translate(1172.000000, 298.000000)">
                <path d="M11,0 C4.93434615,0 0,4.93434615 0,11 C0,13.0692692 0.574961538,15.0780385 1.66565385,16.8223846 C1.23115385,18.3446154 0.446346154,21.2240769 0.437884615,21.2541154 C0.397269231,21.4030385 0.440846154,21.5621154 0.552115385,21.6691538 C0.663384615,21.7761923 0.824153846,21.8142692 0.970538462,21.7694231 L5.33076923,20.4282692 C7.03873077,21.4571923 8.99461538,22 11,22 C17.0656538,22 22,17.0656538 22,11 C22,4.93434615 17.0656538,0 11,0 Z M11,21.1538462 C9.08811538,21.1538462 7.22573077,20.6195 5.61380769,19.6091923 C5.54569231,19.5664615 5.46742308,19.5448846 5.38915385,19.5448846 C5.34726923,19.5448846 5.30538462,19.5512308 5.26476923,19.5635 L1.4575,20.7354231 C1.73715385,19.7145385 2.23976923,17.8885385 2.53126923,16.8727308 C2.56511538,16.7551154 2.54607692,16.6281923 2.47965385,16.5253846 C1.41096154,14.8808846 0.846153846,12.9702692 0.846153846,11 C0.846153846,5.40142308 5.40142308,0.846153846 11,0.846153846 C16.5985769,0.846153846 21.1538462,5.40142308 21.1538462,11 C21.1538462,16.5985769 16.5985769,21.1538462 11,21.1538462 Z" id="Shape"></path>
                <path d="M18.7742353,13.7904155 C17.9636321,13.3414224 17.273346,12.8911151 16.7696831,12.5625836 C16.3850199,12.3120235 16.1070611,12.1311121 15.9033126,12.0290483 C15.3337826,11.7456351 14.9021343,11.9458203 14.7379059,12.1114002 C14.7172676,12.1319882 14.6988248,12.1543283 14.6830167,12.1779826 C14.0915311,13.0632657 13.3191308,13.910001 13.0929875,13.9555574 C12.8317151,13.9148195 11.6087845,13.2213989 10.393319,12.2117118 C9.15238478,11.1801227 8.37164134,10.1923378 8.25703277,9.51950517 C9.05314518,8.70211864 9.33988616,8.18785722 9.33988616,7.60263299 C9.33988616,6.99944904 7.92945426,4.48114507 7.67432943,4.22664262 C7.41832638,3.97170212 6.84177063,3.93184029 5.96047025,4.10705713 C5.87572138,4.12414077 5.79755921,4.16575477 5.73608335,4.22664262 C5.62937882,4.33308685 3.13258063,6.87241683 4.31906475,9.95010054 C5.62147478,13.3278431 8.96444429,17.2540143 13.2264779,17.8918036 C13.7108199,17.9640805 14.164863,18 14.5899247,18 C17.0972616,18 18.5770734,16.7415051 18.9937919,14.2451032 C19.024969,14.0624397 18.9367072,13.8802142 18.7742353,13.7904155 Z M13.3568946,17.0253564 C8.84983572,16.3512096 6.01096828,11.8967596 5.13888927,9.63558633 C4.27383608,7.39281083 5.86913468,5.3931487 6.26960601,4.94108927 C6.59542807,4.88589596 6.93837555,4.86267973 7.08152649,4.88501988 C7.38056264,5.29984574 8.41599179,7.25132324 8.46165957,7.60263299 C8.46165957,7.83260509 8.3865712,8.15281386 7.49253653,9.04510559 C7.40998323,9.12701946 7.36387633,9.23828215 7.36387633,9.35480135 C7.36387633,11.6483897 12.2134436,14.8303274 13.0723492,14.8303274 C13.8192809,14.8303274 14.7932342,13.5779651 15.3478342,12.7618927 C15.3798895,12.7632068 15.4339005,12.7741579 15.5107453,12.8127056 C15.6688261,12.8919912 15.9428328,13.0702743 16.2892932,13.2963041 C16.7468492,13.5946107 17.354582,13.9906008 18.0720931,14.4010462 C17.7462711,15.9648565 16.8355501,17.5466264 13.3568946,17.0253564 Z" id="Shape"></path>
            </g>
        </g>
    </g>
</svg>