<?xml version="1.0" encoding="UTF-8"?>
<svg width="20px" height="15px" viewBox="0 0 20 15" version="1.1" xmlns="http://www.w3.org/2000/svg" xmlns:xlink="http://www.w3.org/1999/xlink">
    <title>003-youtube</title>
    <g id="Page-1" stroke="none" stroke-width="1" fill="none" fill-rule="evenodd">
        <g id="Unicus-homev2" transform="translate(-1173.000000, -486.000000)" fill="#FFFFFF" fill-rule="nonzero">
            <g id="003-youtube" transform="translate(1173.000000, 486.000000)">
                <path d="M19.7996662,3.36347162 C19.7996662,3.29837586 19.5993325,1.86657421 18.9649553,1.1832022 C18.1969962,0.369676801 17.3622852,0.272052228 16.9282418,0.239485281 L16.794699,0.239485281 C14.0901932,0.0442361346 10.0501421,0.0117073218 9.98335117,0.0117073218 C9.94997525,0.0117073218 5.87650911,0.0442361346 3.20537927,0.304581041 L3.10521239,0.304581041 C2.63771479,0.337109854 1.80300383,0.434734427 1.06845976,1.24825982 C0.400667518,1.93163183 0.200333759,3.39600043 0.200333759,3.46109619 C0.200333759,3.46109619 0,5.12071393 0,6.78033167 L0,8.30979603 C0,9.93688495 0.200333759,11.5965027 0.200333759,11.6290315 C0.200333759,11.6941273 0.400667518,13.1259289 1.03504471,13.8093009 C1.73621287,14.5902975 2.57092382,14.6879221 3.10517327,14.7530178 C3.20534015,14.7530178 3.27213111,14.7530178 3.37229799,14.7855467 C4.9081771,14.9157 9.78297828,14.9807958 9.98331204,14.9807958 C10.016688,14.9807958 14.0901541,14.9807958 16.7946599,14.6879221 L16.8948267,14.6879221 C17.3622852,14.6553933 18.1969962,14.5577687 18.9315402,13.7442052 C19.5993325,13.0608332 19.7996662,11.5964646 19.7996662,11.5313688 C19.7996662,11.5313688 20,9.87175106 20,8.21213332 L20,6.6827071 C20,5.05561817 19.7996662,3.39600043 19.7996662,3.36347162 Z M19.3322078,8.27722908 C19.3322078,9.90431801 19.131874,11.5313688 19.131874,11.5313688 C19.065083,11.8893383 18.8647493,12.9306416 18.4307058,13.3862357 C17.8630805,14.0370789 17.1953274,14.1021365 16.8280358,14.1347035 L16.7278689,14.1347035 C14.0567391,14.3299526 10.016688,14.3299526 9.98331204,14.3299526 C9.94993612,14.3299526 4.94159214,14.2648568 3.47246487,14.1021746 C3.37229799,14.1021746 3.27213111,14.0696458 3.17196423,14.0696458 C2.70450575,14.037117 2.03675264,13.9394924 1.50250319,13.353745 C1.10183568,12.9307179 0.868125999,11.8893764 0.834710954,11.5314069 C0.834710954,11.4988781 0.634377195,9.87178919 0.634377195,8.27726721 L0.634377195,6.74780286 C0.634377195,5.12071393 0.834710954,3.49366314 0.834710954,3.49366314 C0.868086871,3.13569366 1.10183568,2.0943903 1.50250319,1.63879625 C2.10350447,0.987953052 2.73788167,0.922857292 3.13854918,0.890328479 L3.23871606,0.890328479 C5.9098459,0.695079333 9.949897,0.66255052 9.98327291,0.66255052 C10.0166488,0.66255052 14.0567391,0.695079333 16.7278298,0.890328479 L16.8613726,0.890328479 C17.2286642,0.922857292 17.8964173,0.987953052 18.4640426,1.63879625 C18.8647102,2.0943903 19.0650439,3.13569366 19.1318349,3.49366314 C19.1652108,3.5587589 19.3322078,5.18580969 19.3322078,6.74780286 L19.3322078,8.27722908 L19.3322078,8.27722908 Z" id="Shape"></path>
                <path d="M14.1569059,7.52879944 L7.81301661,3.91669024 C7.71284973,3.85159448 7.57930693,3.85159448 7.47914005,3.91669024 C7.37897317,3.981786 7.31218221,4.07941057 7.31218221,4.20956396 L7.31218221,11.271062 C7.31218221,11.4012154 7.37897317,11.49884 7.47914005,11.5639357 C7.54593101,11.5964646 7.57930693,11.5964646 7.64609789,11.5964646 C7.71288886,11.5964646 7.74626477,11.5964646 7.81305574,11.5639357 L14.1569451,8.11454688 C14.2571119,8.04945112 14.3239029,7.95182655 14.3239029,7.82167316 C14.3239029,7.69151978 14.2570728,7.59385707 14.1569059,7.52879944 Z M7.97997445,10.7178434 L7.97997445,4.76274445 L13.322195,7.82163503 L7.97997445,10.7178434 Z" id="Shape"></path>
            </g>
        </g>
    </g>
</svg>